<svg width="261" height="34" viewBox="0 0 261 34" fill="none" xmlns="http://www.w3.org/2000/svg">
<path d="M6.49414 23.1465C4.54102 23.1465 3.09896 22.6387 2.16797 21.623C1.24349 20.6074 0.78125 19.0286 0.78125 16.8867C0.78125 12.7656 2.71484 10.7051 6.58203 10.7051C7.10938 10.7051 7.65625 10.7572 8.22266 10.8613C8.78906 10.9655 9.26107 11.112 9.63867 11.3008C10.0228 11.4831 10.2148 11.6882 10.2148 11.916C10.2148 12.0788 10.1497 12.2936 10.0195 12.5605C9.88932 12.821 9.73307 13.0521 9.55078 13.2539C9.375 13.4557 9.21875 13.5566 9.08203 13.5566C9.04948 13.5566 8.96159 13.5241 8.81836 13.459C8.50586 13.3288 8.17708 13.2214 7.83203 13.1367C7.49349 13.0456 7.06055 13 6.5332 13C5.51107 13 4.7526 13.3255 4.25781 13.9766C3.76953 14.6211 3.52539 15.5977 3.52539 16.9062C3.52539 18.2148 3.77279 19.2012 4.26758 19.8652C4.76237 20.5293 5.50456 20.8613 6.49414 20.8613C7.00846 20.8613 7.45443 20.8092 7.83203 20.7051C8.21615 20.6009 8.59049 20.4674 8.95508 20.3047C8.97461 20.2982 9.0332 20.2754 9.13086 20.2363C9.22852 20.1908 9.30013 20.168 9.3457 20.168C9.51497 20.168 9.67773 20.2689 9.83398 20.4707C9.99023 20.666 10.1172 20.8906 10.2148 21.1445C10.3125 21.3919 10.3613 21.571 10.3613 21.6816C10.3613 22.0007 10.1465 22.2708 9.7168 22.4922C9.29362 22.7135 8.7793 22.8796 8.17383 22.9902C7.57487 23.0944 7.01497 23.1465 6.49414 23.1465ZM15.7129 23.1465C14.3392 23.1465 13.291 22.7428 12.5684 21.9355C11.8522 21.1283 11.4941 19.9661 11.4941 18.4492C11.4941 16.9388 11.8522 15.7832 12.5684 14.9824C13.291 14.1816 14.3392 13.7812 15.7129 13.7812C17.0866 13.7812 18.1283 14.1816 18.8379 14.9824C19.554 15.7767 19.9121 16.9323 19.9121 18.4492C19.9121 19.9661 19.554 21.1283 18.8379 21.9355C18.1283 22.7428 17.0866 23.1465 15.7129 23.1465ZM15.7129 21.1055C16.2598 21.1055 16.6602 20.8841 16.9141 20.4414C17.1745 19.9987 17.3047 19.3346 17.3047 18.4492C17.3047 17.5703 17.1745 16.9095 16.9141 16.4668C16.6602 16.0241 16.2598 15.8027 15.7129 15.8027C14.6322 15.8027 14.0918 16.6849 14.0918 18.4492C14.0918 19.3281 14.222 19.9922 14.4824 20.4414C14.7493 20.8841 15.1595 21.1055 15.7129 21.1055ZM24.2285 23.1465C23.3561 23.1465 22.7116 22.9186 22.2949 22.4629C21.8783 22.0007 21.6699 21.2878 21.6699 20.3242V14.4355C21.6699 14.2533 21.7546 14.1165 21.9238 14.0254C22.0931 13.9342 22.3568 13.8887 22.7148 13.8887H23.1934C23.5514 13.8887 23.8151 13.9342 23.9844 14.0254C24.1536 14.1165 24.2383 14.2533 24.2383 14.4355V19.9336C24.2383 20.2917 24.3197 20.5618 24.4824 20.7441C24.6452 20.9264 24.9121 21.0176 25.2832 21.0176C25.6022 21.0176 25.8789 20.9167 26.1133 20.7148C26.3542 20.5065 26.5397 20.2721 26.6699 20.0117V14.4355C26.6699 14.2533 26.7546 14.1165 26.9238 14.0254C27.0931 13.9342 27.3568 13.8887 27.7148 13.8887H28.1934C28.5514 13.8887 28.8151 13.9342 28.9844 14.0254C29.1536 14.1165 29.2383 14.2533 29.2383 14.4355V19.9336C29.2383 20.4805 29.2513 20.9102 29.2773 21.2227C29.3099 21.5286 29.349 21.8151 29.3945 22.082C29.4271 22.2578 29.4434 22.3815 29.4434 22.4531C29.4434 22.5833 29.3229 22.6908 29.082 22.7754C28.8411 22.86 28.5645 22.9219 28.252 22.9609C27.946 23 27.6986 23.0195 27.5098 23.0195C27.3014 23.0195 27.1517 22.9382 27.0605 22.7754C26.9759 22.6061 26.9076 22.3685 26.8555 22.0625L26.8066 21.8184C26.5332 22.1895 26.1654 22.5052 25.7031 22.7656C25.2474 23.0195 24.7559 23.1465 24.2285 23.1465ZM32.4316 23.0293C31.7415 23.0293 31.3965 22.847 31.3965 22.4824V16.9746C31.3965 16.1413 31.3411 15.4479 31.2305 14.8945C31.1979 14.7188 31.1816 14.5951 31.1816 14.5234C31.1816 14.3932 31.3021 14.2891 31.543 14.2109C31.7904 14.1263 32.0671 14.0645 32.373 14.0254C32.6855 13.9863 32.9362 13.9668 33.125 13.9668C33.3268 13.9668 33.4668 14.0417 33.5449 14.1914C33.6296 14.3411 33.7044 14.5592 33.7695 14.8457L33.8281 15.0996C34.0495 14.696 34.3034 14.377 34.5898 14.1426C34.8828 13.9017 35.2572 13.7812 35.7129 13.7812C36.0905 13.7812 36.3509 13.8789 36.4941 14.0742C36.6374 14.263 36.709 14.4779 36.709 14.7188C36.709 14.849 36.6862 15.0345 36.6406 15.2754C36.5951 15.5098 36.5299 15.7181 36.4453 15.9004C36.3607 16.0827 36.2663 16.1738 36.1621 16.1738C36.0905 16.1738 35.9831 16.1543 35.8398 16.1152C35.6445 16.0632 35.4785 16.0371 35.3418 16.0371C35.0228 16.0371 34.7428 16.1283 34.502 16.3105C34.2676 16.4863 34.0885 16.6849 33.9648 16.9062V22.4824C33.9648 22.847 33.6133 23.0293 32.9102 23.0293H32.4316ZM40.0781 23.1465C39.6289 23.1465 39.1829 23.0977 38.7402 23C38.2975 22.9023 37.9297 22.7624 37.6367 22.5801C37.3503 22.3978 37.207 22.1895 37.207 21.9551C37.207 21.8118 37.2591 21.6328 37.3633 21.418C37.4674 21.2031 37.5911 21.0176 37.7344 20.8613C37.8841 20.6986 38.0143 20.6172 38.125 20.6172C38.1836 20.6172 38.3105 20.6628 38.5059 20.7539C38.7337 20.8581 38.9518 20.9427 39.1602 21.0078C39.3685 21.0729 39.6061 21.1055 39.873 21.1055C40.2051 21.1055 40.4557 21.0436 40.625 20.9199C40.7943 20.7962 40.8789 20.6139 40.8789 20.373C40.8789 20.1908 40.8268 20.041 40.7227 19.9238C40.625 19.8001 40.498 19.6992 40.3418 19.6211C40.1855 19.543 39.9642 19.4486 39.6777 19.3379L39.3945 19.2305C39.0234 19.0872 38.6979 18.9245 38.418 18.7422C38.138 18.5599 37.9004 18.2962 37.7051 17.9512C37.5098 17.5996 37.4121 17.1569 37.4121 16.623C37.4121 16.0306 37.5391 15.5228 37.793 15.0996C38.0534 14.6699 38.4212 14.3444 38.8965 14.123C39.3717 13.8952 39.9316 13.7812 40.5762 13.7812C40.9473 13.7812 41.3346 13.8171 41.7383 13.8887C42.1419 13.9603 42.4805 14.071 42.7539 14.2207C43.0339 14.3704 43.1738 14.5592 43.1738 14.7871C43.1738 14.9173 43.1315 15.0931 43.0469 15.3145C42.9688 15.5358 42.8711 15.7311 42.7539 15.9004C42.6367 16.0697 42.526 16.1543 42.4219 16.1543C42.3893 16.1543 42.2982 16.125 42.1484 16.0664C41.9466 15.9818 41.7513 15.9167 41.5625 15.8711C41.3802 15.819 41.1686 15.793 40.9277 15.793C40.3158 15.793 40.0098 15.9948 40.0098 16.3984C40.0098 16.5807 40.0651 16.737 40.1758 16.8672C40.293 16.9974 40.4362 17.1048 40.6055 17.1895C40.7747 17.2741 41.0124 17.375 41.3184 17.4922C41.6699 17.6354 41.888 17.7266 41.9727 17.7656C42.4284 17.9935 42.793 18.2962 43.0664 18.6738C43.3464 19.0449 43.4863 19.543 43.4863 20.168C43.4863 20.7604 43.3529 21.2812 43.0859 21.7305C42.819 22.1797 42.4284 22.528 41.9141 22.7754C41.3997 23.0228 40.7878 23.1465 40.0781 23.1465ZM49.0918 23.1465C47.5684 23.1465 46.4323 22.7396 45.6836 21.9258C44.9349 21.1055 44.5605 19.9694 44.5605 18.5176C44.5605 16.8835 44.9349 15.6855 45.6836 14.9238C46.4323 14.1621 47.4642 13.7812 48.7793 13.7812C49.6517 13.7812 50.3646 13.9798 50.918 14.377C51.4779 14.7741 51.8848 15.3079 52.1387 15.9785C52.3991 16.6491 52.5293 17.4076 52.5293 18.2539C52.5293 18.3516 52.4707 18.4818 52.3535 18.6445C52.2428 18.8073 52.1159 18.9538 51.9727 19.084C51.8294 19.2142 51.7188 19.2793 51.6406 19.2793H47.2168C47.2754 19.9434 47.4707 20.4154 47.8027 20.6953C48.1413 20.9688 48.61 21.1055 49.209 21.1055C49.5345 21.1055 49.8275 21.0697 50.0879 20.998C50.3548 20.9199 50.638 20.819 50.9375 20.6953C51.1198 20.6107 51.2435 20.5684 51.3086 20.5684C51.4258 20.5684 51.5527 20.653 51.6895 20.8223C51.8327 20.985 51.9531 21.1738 52.0508 21.3887C52.1549 21.6035 52.207 21.7695 52.207 21.8867C52.207 22.1536 52.0247 22.3815 51.6602 22.5703C51.3021 22.7591 50.8757 22.9023 50.3809 23C49.8926 23.0977 49.4629 23.1465 49.0918 23.1465ZM50.0293 17.5703C50.0293 17.0365 49.9251 16.61 49.7168 16.291C49.5085 15.9655 49.196 15.8027 48.7793 15.8027C47.9199 15.8027 47.3991 16.3919 47.2168 17.5703H50.0293ZM56.6211 23.1465C56.1719 23.1465 55.7259 23.0977 55.2832 23C54.8405 22.9023 54.4727 22.7624 54.1797 22.5801C53.8932 22.3978 53.75 22.1895 53.75 21.9551C53.75 21.8118 53.8021 21.6328 53.9062 21.418C54.0104 21.2031 54.1341 21.0176 54.2773 20.8613C54.4271 20.6986 54.5573 20.6172 54.668 20.6172C54.7266 20.6172 54.8535 20.6628 55.0488 20.7539C55.2767 20.8581 55.4948 20.9427 55.7031 21.0078C55.9115 21.0729 56.1491 21.1055 56.416 21.1055C56.748 21.1055 56.9987 21.0436 57.168 20.9199C57.3372 20.7962 57.4219 20.6139 57.4219 20.373C57.4219 20.1908 57.3698 20.041 57.2656 19.9238C57.168 19.8001 57.041 19.6992 56.8848 19.6211C56.7285 19.543 56.5072 19.4486 56.2207 19.3379L55.9375 19.2305C55.5664 19.0872 55.2409 18.9245 54.9609 18.7422C54.681 18.5599 54.4434 18.2962 54.248 17.9512C54.0527 17.5996 53.9551 17.1569 53.9551 16.623C53.9551 16.0306 54.082 15.5228 54.3359 15.0996C54.5964 14.6699 54.9642 14.3444 55.4395 14.123C55.9147 13.8952 56.4746 13.7812 57.1191 13.7812C57.4902 13.7812 57.8776 13.8171 58.2812 13.8887C58.6849 13.9603 59.0234 14.071 59.2969 14.2207C59.5768 14.3704 59.7168 14.5592 59.7168 14.7871C59.7168 14.9173 59.6745 15.0931 59.5898 15.3145C59.5117 15.5358 59.4141 15.7311 59.2969 15.9004C59.1797 16.0697 59.069 16.1543 58.9648 16.1543C58.9323 16.1543 58.8411 16.125 58.6914 16.0664C58.4896 15.9818 58.2943 15.9167 58.1055 15.8711C57.9232 15.819 57.7116 15.793 57.4707 15.793C56.8587 15.793 56.5527 15.9948 56.5527 16.3984C56.5527 16.5807 56.6081 16.737 56.7188 16.8672C56.8359 16.9974 56.9792 17.1048 57.1484 17.1895C57.3177 17.2741 57.5553 17.375 57.8613 17.4922C58.2129 17.6354 58.431 17.7266 58.5156 17.7656C58.9714 17.9935 59.3359 18.2962 59.6094 18.6738C59.8893 19.0449 60.0293 19.543 60.0293 20.168C60.0293 20.7604 59.8958 21.2812 59.6289 21.7305C59.362 22.1797 58.9714 22.528 58.457 22.7754C57.9427 23.0228 57.3307 23.1465 56.6211 23.1465Z" fill="white"/>
<path d="M66 15.5938L69.5 18.3937L73 15.5938" stroke="white" stroke-width="2" stroke-linecap="round" stroke-linejoin="round"/>
<path d="M115.5 23.0293C114.81 23.0293 114.465 22.847 114.465 22.4824V11.3691C114.465 11.1803 114.546 11.0404 114.709 10.9492C114.878 10.8516 115.142 10.8027 115.5 10.8027H116.115C116.473 10.8027 116.734 10.8516 116.896 10.9492C117.066 11.0404 117.15 11.1803 117.15 11.3691V15.6562H121.838V11.3691C121.838 11.1803 121.923 11.0404 122.092 10.9492C122.261 10.8516 122.525 10.8027 122.883 10.8027H123.488C124.185 10.8027 124.533 10.9915 124.533 11.3691V22.4824C124.533 22.847 124.185 23.0293 123.488 23.0293H122.883C122.186 23.0293 121.838 22.847 121.838 22.4824V17.9512H117.15V22.4824C117.15 22.847 116.805 23.0293 116.115 23.0293H115.5ZM130.998 23.1465C129.475 23.1465 128.339 22.7396 127.59 21.9258C126.841 21.1055 126.467 19.9694 126.467 18.5176C126.467 16.8835 126.841 15.6855 127.59 14.9238C128.339 14.1621 129.37 13.7812 130.686 13.7812C131.558 13.7812 132.271 13.9798 132.824 14.377C133.384 14.7741 133.791 15.3079 134.045 15.9785C134.305 16.6491 134.436 17.4076 134.436 18.2539C134.436 18.3516 134.377 18.4818 134.26 18.6445C134.149 18.8073 134.022 18.9538 133.879 19.084C133.736 19.2142 133.625 19.2793 133.547 19.2793H129.123C129.182 19.9434 129.377 20.4154 129.709 20.6953C130.048 20.9688 130.516 21.1055 131.115 21.1055C131.441 21.1055 131.734 21.0697 131.994 20.998C132.261 20.9199 132.544 20.819 132.844 20.6953C133.026 20.6107 133.15 20.5684 133.215 20.5684C133.332 20.5684 133.459 20.653 133.596 20.8223C133.739 20.985 133.859 21.1738 133.957 21.3887C134.061 21.6035 134.113 21.7695 134.113 21.8867C134.113 22.1536 133.931 22.3815 133.566 22.5703C133.208 22.7591 132.782 22.9023 132.287 23C131.799 23.0977 131.369 23.1465 130.998 23.1465ZM131.936 17.5703C131.936 17.0365 131.831 16.61 131.623 16.291C131.415 15.9655 131.102 15.8027 130.686 15.8027C129.826 15.8027 129.305 16.3919 129.123 17.5703H131.936ZM138.742 23.1465C137.915 23.1465 137.284 22.9154 136.848 22.4531C136.418 21.9844 136.203 21.2747 136.203 20.3242V10.4707C136.203 10.0931 136.551 9.9043 137.248 9.9043H137.736C138.094 9.9043 138.355 9.95312 138.518 10.0508C138.687 10.1419 138.771 10.2819 138.771 10.4707V20.3535C138.771 20.6204 138.82 20.8125 138.918 20.9297C139.016 21.0469 139.178 21.1055 139.406 21.1055C139.465 21.1055 139.553 21.0924 139.67 21.0664C139.702 21.0599 139.735 21.0534 139.768 21.0469C139.8 21.0404 139.836 21.0371 139.875 21.0371C139.973 21.0371 140.061 21.125 140.139 21.3008C140.223 21.4701 140.288 21.6621 140.334 21.877C140.38 22.0853 140.402 22.222 140.402 22.2871C140.402 22.86 139.849 23.1465 138.742 23.1465ZM142.551 26.584C142.193 26.584 141.929 26.5352 141.76 26.4375C141.59 26.3464 141.506 26.2064 141.506 26.0176V16.9746C141.506 16.4538 141.49 16.0469 141.457 15.7539C141.431 15.4544 141.395 15.168 141.35 14.8945C141.317 14.7188 141.301 14.5951 141.301 14.5234C141.301 14.3932 141.421 14.2891 141.662 14.2109C141.903 14.1263 142.176 14.0645 142.482 14.0254C142.795 13.9863 143.046 13.9668 143.234 13.9668C143.443 13.9668 143.586 14.0449 143.664 14.2012C143.749 14.3509 143.824 14.569 143.889 14.8555L143.938 15.0801C144.139 14.696 144.445 14.3835 144.855 14.1426C145.272 13.9017 145.741 13.7812 146.262 13.7812C146.893 13.7812 147.453 13.9635 147.941 14.3281C148.43 14.6927 148.811 15.2298 149.084 15.9395C149.364 16.6426 149.504 17.4857 149.504 18.4688C149.504 19.4128 149.361 20.2363 149.074 20.9395C148.788 21.6426 148.371 22.1862 147.824 22.5703C147.277 22.9544 146.62 23.1465 145.852 23.1465C145.194 23.1465 144.598 22.9642 144.064 22.5996V26.0176C144.064 26.2064 143.98 26.3464 143.811 26.4375C143.648 26.5352 143.387 26.584 143.029 26.584H142.551ZM145.285 21.1055C146.359 21.1055 146.896 20.2266 146.896 18.4688C146.896 16.7435 146.431 15.8809 145.5 15.8809C144.953 15.8809 144.475 16.2227 144.064 16.9062V20.7734C144.468 20.9948 144.875 21.1055 145.285 21.1055Z" fill="white"/>
<circle cx="206" cy="17" r="15" fill="white"/>
<path d="M202.515 25C203.191 25 203.74 24.4404 203.74 23.75C203.74 23.0596 203.191 22.5 202.515 22.5C201.838 22.5 201.289 23.0596 201.289 23.75C201.289 24.4404 201.838 25 202.515 25Z" fill="black"/>
<path d="M211.093 25C211.77 25 212.319 24.4404 212.319 23.75C212.319 23.0596 211.77 22.5 211.093 22.5C210.416 22.5 209.868 23.0596 209.868 23.75C209.868 24.4404 210.416 25 211.093 25Z" fill="black"/>
<path d="M202.2 19.375H212.208L213.679 11.875H200.902L200.578 10H197V11.25H199.55L201.388 21.875H212.319V20.625H202.416L202.2 19.375Z" fill="black"/>
<circle cx="246" cy="17" r="15" fill="white"/>
<path d="M248.513 10.2704C247.84 9.53176 246.899 9.125 245.861 9.125C244.817 9.125 243.873 9.5293 243.202 10.2634C242.525 11.0055 242.195 12.0141 242.272 13.1033C242.426 15.252 244.036 17 245.861 17C247.686 17 249.293 15.2524 249.449 13.104C249.527 12.0247 249.195 11.0182 248.513 10.2704ZM251.952 24.875H239.769C239.61 24.8771 239.452 24.8431 239.307 24.7754C239.162 24.7077 239.034 24.6081 238.931 24.4837C238.706 24.2105 238.616 23.8375 238.683 23.4603C238.975 21.8143 239.887 20.4316 241.32 19.4609C242.593 18.5993 244.205 18.125 245.861 18.125C247.516 18.125 249.129 18.5996 250.402 19.4609C251.835 20.4312 252.746 21.8139 253.038 23.46C253.106 23.8372 253.015 24.2102 252.79 24.4834C252.688 24.6078 252.56 24.7075 252.415 24.7752C252.27 24.843 252.112 24.8771 251.952 24.875Z" fill="black"/>
</svg>
